# xmcd CD database file
#
# Track frame offsets:
#	150
#	12444
#	29760
#	49372
#	68362
#	85588
#	107061
#	130898
#	141164
#	167601
#	185079
#	205648
#	223325
#	235301
#	253618
#	269878
#	289317
#	306394
#
# Disc length: 4396 seconds
#
# Revision: 0
# Processed by: cddbd v1.5.1PL0 Copyright (c) Steve Scherf et al.
# Submitted via: CDex 1.51
#
DISCID=1b112a12
DTITLE=Various Artist - Idstein Jazz Festival '05
DYEAR=2005
DGENRE=Jazz
TTITLE0=Coming Up - spinning wheel
TTITLE1=FRAUCONTRABASS - All I do
TTITLE2=tHaibnakkel - Schluckt das!
TTITLE3=Acoustic Supreme - Don't worry, be happy
TTITLE4=Blueshot - looking back
TTITLE5=GROOVEHOLICS - Milestones
TTITLE6=DRUMMIT ! - Kassa
TTITLE7=Dornbusch Jazz-Trio and Juliana da Silva - Upa Neguinho
TTITLE8=Ladies NYGHT - My favorite things
TTITLE9=Lorenzo Petrocca Trio - Oleo
TTITLE10=Meriçimsi - Katib
TTITLE11=Papa's Finest Boogie Band - Papa's finest
TTITLE12=PHOENIX BRASS-BAND - pelican state march
TTITLE13=Viva Creole - Tu as cale le monteur
TTITLE14=Two For You - Day tripper
TTITLE15=Boogie Connection - help the poor
TTITLE16=Conny Kollet - Schieß' mich auf den Mond
TTITLE17=RhineStream JazzBand - flamingo
EXTD=YEAR: 2005
EXTT0=
EXTT1=
EXTT2=
EXTT3=
EXTT4=
EXTT5=
EXTT6=
EXTT7=
EXTT8=
EXTT9=
EXTT10=
EXTT11=
EXTT12=
EXTT13=
EXTT14=
EXTT15=
EXTT16=
EXTT17=
PLAYORDER=
